<?xml version="1.0" standalone="no"?>
<!DOCTYPE svg PUBLIC "-//W3C//DTD SVG 20010904//EN"
 "http://www.w3.org/TR/2001/REC-SVG-20010904/DTD/svg10.dtd">
<svg version="1.0" xmlns="http://www.w3.org/2000/svg"
 width="500.000000pt" height="500.000000pt" viewBox="0 0 500.000000 500.000000"
 preserveAspectRatio="xMidYMid meet">
<metadata>
Created by potrace 1.11, written by Peter Selinger 2001-2013
</metadata>
<g transform="translate(0.000000,500.000000) scale(0.100000,-0.100000)"
fill="#000000" stroke="none">
<path d="M1745 4370 c-286 -8 -384 -22 -473 -70 -150 -80 -212 -265 -140 -421
54 -116 157 -182 288 -185 41 -1 82 2 90 6 31 16 96 19 575 26 423 5 498 4
550 -9 33 -9 96 -19 140 -22 44 -4 87 -9 95 -10 8 -2 49 -6 90 -10 41 -3 91
-10 110 -15 19 -5 51 -12 70 -15 93 -15 140 -36 210 -95 39 -33 95 -74 124
-91 44 -27 87 -74 85 -96 0 -3 4 -9 9 -12 26 -17 196 -384 223 -484 11 -37 36
-100 58 -140 29 -56 40 -89 46 -147 11 -104 13 -160 5 -160 -3 0 -6 -10 -7
-22 0 -13 -6 -66 -12 -118 -7 -52 -14 -126 -17 -165 -7 -84 -50 -183 -115
-265 -24 -30 -78 -102 -120 -160 -42 -58 -87 -116 -100 -129 -19 -18 -168 -84
-214 -94 -5 -2 -17 -7 -25 -12 -8 -5 -21 -10 -27 -11 -7 -1 -34 -18 -60 -37
-78 -55 -137 -87 -204 -106 -35 -11 -136 -44 -224 -75 -88 -31 -169 -58 -180
-61 -11 -2 -67 -20 -125 -41 -94 -33 -122 -38 -261 -47 l-155 -10 -65 31 c-35
17 -123 45 -195 62 -115 28 -136 36 -163 64 -17 18 -33 42 -35 53 -3 12 -12
35 -20 52 -9 17 -15 31 -12 31 2 0 -18 39 -46 87 -28 49 -60 104 -70 123 -39
69 -107 166 -141 201 -23 24 -40 55 -51 95 -9 32 -27 93 -40 134 -14 41 -32
109 -40 150 -9 41 -25 109 -36 150 -17 65 -20 109 -20 319 -1 285 -4 277 95
285 174 15 263 16 329 6 181 -30 173 -27 235 -92 59 -64 129 -114 198 -141 51
-20 171 -17 226 6 76 33 171 130 182 187 2 11 7 25 11 32 12 19 12 112 0 127
-8 11 -8 13 2 7 13 -8 12 -5 -24 84 -17 40 -107 146 -188 219 -16 14 -38 34
-47 43 -10 9 -33 25 -51 34 -18 9 -35 20 -38 24 -15 23 -227 86 -325 97 -27 3
-72 12 -100 19 -37 10 -98 12 -239 8 -104 -2 -192 -6 -195 -8 -3 -2 -42 -7
-86 -10 -102 -9 -142 -20 -224 -60 -119 -59 -132 -67 -186 -125 -103 -108
-126 -136 -159 -206 -60 -127 -61 -136 -61 -525 l0 -355 42 -165 c23 -91 45
-183 49 -205 3 -22 10 -44 14 -50 6 -10 22 -62 35 -115 43 -174 94 -281 175
-370 51 -55 87 -106 129 -185 18 -33 37 -65 42 -71 4 -6 13 -33 19 -60 6 -27
25 -74 43 -103 18 -30 36 -62 42 -72 20 -37 212 -217 271 -253 46 -28 96 -46
200 -71 76 -19 157 -43 179 -54 22 -11 67 -32 100 -48 l60 -28 250 2 c138 1
261 4 275 7 57 12 196 47 210 53 8 3 22 7 30 9 14 3 342 111 500 165 36 12 97
33 137 46 64 22 250 122 263 142 6 9 102 48 200 82 36 12 67 25 70 28 3 3 21
15 40 25 43 25 42 24 115 88 85 76 114 108 137 153 23 44 75 117 155 216 83
103 158 243 228 424 14 36 16 49 25 177 10 146 18 210 36 280 17 68 11 192
-20 443 -10 79 -38 161 -76 225 -21 36 -41 78 -44 93 -7 39 -34 108 -73 190
-18 37 -44 94 -58 128 -24 56 -74 157 -170 346 -20 39 -48 84 -63 99 -30 30
-136 110 -222 167 -46 31 -164 120 -207 157 -7 5 -16 10 -21 10 -4 0 -31 11
-58 24 -43 21 -205 67 -289 82 -16 3 -32 7 -37 10 -4 3 -67 11 -140 19 -73 8
-162 17 -198 21 -36 4 -87 13 -115 21 -60 18 -574 24 -1010 13z"/>
</g>
</svg>
